HIERARCHY
ROOT RootJoint
{
    OFFSET   0.000000   0.000000   0.000000
    CHANNELS 6 Xposition Yposition Zposition Xrotation Yrotation Zrotation
    JOINT pelvis_lowerback
    {
        OFFSET   0.000000   0.093605   0.000000
        CHANNELS 3 Xrotation Yrotation Zrotation
        JOINT lowerback_torso
        {
            OFFSET   0.000000   0.100000   0.000000
            CHANNELS 3 Xrotation Yrotation Zrotation
            JOINT torso_head
            {
                OFFSET   0.000000   0.282350   0.000000
                CHANNELS 3 Xrotation Yrotation Zrotation
                End Site
                {
                    OFFSET   0.000000   0.192650   0.000000
                }
            }
            JOINT rTorso_Clavicle
            {
                OFFSET  -0.001000   0.157500   0.000000
                CHANNELS 3 Xrotation Yrotation Zrotation
                JOINT rShoulder
                {
                    OFFSET  -0.117647   0.000000   0.000000
                    CHANNELS 3 Xrotation Yrotation Zrotation
                    JOINT rElbow
                    {
                        OFFSET  -0.245000   0.000000   0.000000
                        CHANNELS 3 Xrotation Yrotation Zrotation
                        JOINT rWrist
                        {
                            OFFSET  -0.240000   0.000000   0.000000
                            CHANNELS 3 Xrotation Yrotation Zrotation
                            End Site
                            {
                                OFFSET  -0.116353  -0.002500   0.000000
                            }
                        }
                    }
                }
            }
            JOINT lTorso_Clavicle
            {
                OFFSET   0.001000   0.157500   0.000000
                CHANNELS 3 Xrotation Yrotation Zrotation
                JOINT lShoulder
                {
                    OFFSET   0.117647   0.000000   0.000000
                    CHANNELS 3 Xrotation Yrotation Zrotation
                    JOINT lElbow
                    {
                        OFFSET   0.245000   0.000000   0.000000
                        CHANNELS 3 Xrotation Yrotation Zrotation
                        JOINT lWrist
                        {
                            OFFSET   0.240000   0.000000   0.000000
                            CHANNELS 3 Xrotation Yrotation Zrotation
                            End Site
                            {
                                OFFSET   0.116353  -0.002500   0.000000
                            }
                        }
                    }
                }
            }
        }
    }
    JOINT rHip
    {
        OFFSET  -0.100000  -0.051395   0.000000
        CHANNELS 3 Xrotation Yrotation Zrotation
        JOINT rKnee
        {
            OFFSET   0.000000  -0.410000   0.000000
            CHANNELS 3 Xrotation Yrotation Zrotation
            JOINT rAnkle
            {
                OFFSET   0.000000  -0.390000   0.000000
                CHANNELS 3 Xrotation Yrotation Zrotation
                JOINT rToeJoint
                {
                    OFFSET   0.000000  -0.050000   0.130000
                    CHANNELS 3 Xrotation Yrotation Zrotation
                    End Site
                    {
                        OFFSET  -0.010000   0.002000   0.060000
                    }
                }
            }
        }
    }
    JOINT lHip
    {
        OFFSET   0.100000  -0.051395   0.000000
        CHANNELS 3 Xrotation Yrotation Zrotation
        JOINT lKnee
        {
            OFFSET   0.000000  -0.410000   0.000000
            CHANNELS 3 Xrotation Yrotation Zrotation
            JOINT lAnkle
            {
                OFFSET   0.000000  -0.390000   0.000000
                CHANNELS 3 Xrotation Yrotation Zrotation
                JOINT lToeJoint
                {
                    OFFSET   0.000000  -0.050000   0.130000
                    CHANNELS 3 Xrotation Yrotation Zrotation
                    End Site
                    {
                        OFFSET   0.010000   0.002000   0.060000
                    }
                }
            }
        }
    }
}
MOTION
Frames: 14
Frame Time:   0.008333
 -2.583776   0.925311   3.323668  32.169781 -63.550917  36.663524   3.568411  -7.320862   5.994764   0.137295  -2.257071   4.193764  -7.846106  -9.694064  -3.073839   4.283764   7.851841  -1.931528   0.343271   6.295383  37.981076   0.001228  52.769779   0.000049  -1.136212   3.170629  -4.913725   7.185824  -6.263060  -0.037991  12.553667 -22.701326 -31.228481  -0.044099 -79.589430  -0.075234   0.932236  -5.121172   3.825164 -34.637893 -20.662234 -16.989934  18.340304  -0.001340  -0.001140   4.420078 -19.031817  -1.702720  -9.139417   0.006908   0.008510 -19.037334  26.685950   5.301200  21.306717  -0.026971  -0.024206  15.145805  32.310751  -5.714613 -21.883093  -0.004355  -0.020498
 -2.587748   0.925420   3.320326  32.273883 -63.950737  37.315709   3.716146  -7.397481   6.198018   0.157287  -2.468218   4.224110  -7.984482  -9.719739  -3.287672   4.050076   7.395417  -1.986730  -0.276037   5.338554  36.826867   0.027514  51.769948  -0.028084  -1.052096   3.616305  -4.732545   6.999475  -6.246274  -0.258903  12.587951 -22.086945 -30.737300  -0.011486 -77.807686  -0.055734   1.117184  -5.916345   3.635143 -34.489901 -19.733420 -17.110189  19.043774  -0.001299   0.001268   3.422173 -18.670324  -1.725661  -8.479189   0.004407   0.010659 -19.407088  25.889285   5.632940  23.365500  -0.038275  -0.035924  15.508476  30.797299  -6.354855 -20.419036  -0.007623  -0.046994
 -2.591696   0.925651   3.317210  32.207629 -64.339085  37.858106   3.863579  -7.455467   6.373799   0.197350  -2.681177   4.208903  -8.110769  -9.737777  -3.494297   3.818038   6.894688  -2.120793  -0.870821   4.370085  35.635901   0.047805  50.762328  -0.048758  -1.002319   3.675955  -4.839771   6.819752  -6.195844  -0.456494  12.622991 -21.431239 -30.241470   0.017750 -76.033702  -0.036356   1.263715  -6.148695   3.613538 -34.332092 -18.813876 -17.329099  19.789203  -0.001104   0.003326   2.513375 -18.320910  -1.730336  -8.000903   0.002901   0.011321 -19.731781  25.135832   5.917206  25.550687  -0.048888  -0.043688  15.898993  29.350364  -6.960751 -18.552786  -0.015348  -0.073309
 -2.595679   0.925990   3.314232  32.077044 -64.710833  38.357088   3.978744  -7.509278   6.523338   0.232040  -2.883211   4.170341  -8.224556  -9.753220  -3.686135   3.604376   6.372873  -2.310869  -1.432579   3.432189  34.465741   0.061365  49.801664  -0.062100  -0.965185   3.577843  -5.083560   6.665910  -6.103396  -0.620665  12.666858 -20.777620 -29.768281   0.039925 -74.354040  -0.020352   1.391176  -6.160959   3.645615 -34.171152 -17.956298 -17.588845  20.512768  -0.000945   0.004634   1.694691 -18.004817  -1.730274  -7.662173   0.001957   0.010837 -20.003300  24.437645   6.174843  27.639210  -0.057080  -0.046813  16.251193  27.997879  -7.512032 -16.824031  -0.023152  -0.087946
 -2.599687   0.926415   3.311331  31.908430 -65.063786  38.826059   4.059194  -7.562550   6.645083   0.252226  -3.073628   4.117097  -8.329581  -9.766957  -3.864390   3.407634   5.849683  -2.529065  -1.965269   2.539648  33.337414   0.069402  48.895710  -0.069799  -0.935110   3.416224  -5.389495   6.533202  -5.983446  -0.757387  12.714442 -20.141038 -29.321513   0.056001 -72.777346  -0.007480   1.508365  -6.094028   3.697557 -34.006485 -17.161513 -17.870497  21.202703  -0.000849   0.005355   0.955365 -17.719727  -1.727165  -7.435704   0.001351   0.009733 -20.237808  23.786658   6.421338  29.600033  -0.062842  -0.046563  16.566333  26.734207  -8.014018 -15.238467  -0.029792  -0.093977
 -2.603705   0.926911   3.308477  31.711144 -65.399765  39.269079   4.108037  -7.615459   6.739870   0.255982  -3.252524   4.052891  -8.427967  -9.779229  -4.030904   3.225426   5.338108  -2.758018  -2.472041   1.699192  32.260843   0.073179  48.045628  -0.073330  -0.909856   3.229979  -5.722195   6.415709  -5.848541  -0.872664  12.760938 -19.529508 -28.901474   0.067149 -71.301751   0.002723   1.618431  -5.997665   3.762298 -33.837740 -16.425316 -18.166019  21.858270  -0.000813   0.005654   0.285287 -17.461694  -1.721661  -7.301607   0.000964   0.008349 -20.446147  23.177477   6.664433  31.432812  -0.066445  -0.044097  16.848734  25.553771  -8.472255 -13.785591  -0.034849  -0.094105
 -2.607713   0.927462   3.305659  31.490787 -65.721966  39.688924   4.129273  -7.667293   6.810024   0.243919  -3.419863   3.980171  -8.520831  -9.790166  -4.187079   3.055741   4.846113  -2.987504  -2.954982   0.913274  31.240327   0.073799  47.250410  -0.073876  -0.888052   3.038382  -6.062561   6.309267  -5.707223  -0.971245  12.803506 -18.947397 -28.507647   0.074365 -69.922980   0.010654   1.722778  -5.892772   3.837909 -33.665089 -15.743389 -18.471018  22.480926  -0.000828   0.005648  -0.323691 -17.227639  -1.714401  -7.244331   0.000723   0.006892 -20.635002  22.606191   6.907342  33.143071  -0.068213  -0.040311  17.102439  24.451302  -8.891533 -12.454728  -0.038268  -0.090382
 -2.611106   0.927489   3.302292  30.683326 -65.844909  39.638778   4.302579  -7.766442   6.686472   0.204521  -3.667817   3.919260  -8.579000  -9.767656  -4.421300   2.691357   4.350757  -3.206619  -3.912169  -0.138721  30.055082   0.101973  45.579792  -0.100541  -0.796476   3.362778  -5.831440   6.065525  -5.679347  -1.057925  12.667645 -18.283653 -27.824781   0.117409 -67.183870   0.038508   1.873385  -6.790884   3.827364 -33.475557 -14.951843 -19.000405  23.329264  -0.000003   0.008236  -1.318230 -16.624120  -1.859247  -6.846570   0.000602   0.009341 -21.346756  21.627945   7.299690  36.172713  -0.084616  -0.040091  16.130978  23.121636  -9.316482 -11.042120  -0.039946  -0.090649
 -2.614276   0.927362   3.298791  29.828067 -65.962631  39.586618   4.515678  -7.831237   6.500641   0.188940  -3.902983   3.784285  -8.633299  -9.740890  -4.655003   2.325521   3.830765  -3.515481  -4.843055  -1.172965  28.818755   0.122082  43.954040  -0.116289  -0.748073   3.327097  -5.877204   5.816706  -5.617886  -1.077678  12.536237 -17.561911 -27.105424   0.145523 -64.496614   0.056783   1.983652  -7.006132   3.996790 -33.298444 -14.167509 -19.572899  24.188925   0.000646   0.010197  -2.357191 -16.025477  -1.974329  -6.382570   0.000351   0.011808 -22.112520  20.681212   7.765428  39.168654  -0.099585  -0.034922  15.227169  21.885919  -9.733466  -9.796082  -0.041340  -0.085928
 -2.617286   0.927215   3.295245  29.001785 -66.079680  39.588292   4.734941  -7.879181   6.275925   0.188979  -4.115789   3.596983  -8.678368  -9.714743  -4.880617   1.975020   3.302414  -3.885559  -5.735734  -2.156427  27.584457   0.133833  42.419689  -0.123123  -0.713908   3.155491  -6.076120   5.589425  -5.514159  -1.058997  12.415883 -16.838674 -26.408286   0.158754 -61.958451   0.066077   2.073411  -6.954870   4.246557 -33.140457 -13.423914 -20.163154  25.006416   0.000998   0.011173  -3.360965 -15.463597  -2.070532  -5.920439   0.000075   0.013369 -22.876981  19.773203   8.280372  41.966392  -0.110909  -0.026581  14.385510  20.739774 -10.142068  -8.653485  -0.042098  -0.078825
 -2.620159   0.927100   3.291702  28.214664 -66.197787  39.649171   4.950768  -7.917693   6.020091   0.198860  -4.308770   3.372116  -8.715675  -9.690011  -5.096005   1.641376   2.780494  -4.287411  -6.590279  -3.079041  26.376412   0.138855  40.980352  -0.123805  -0.687182   2.935965  -6.358077   5.386250  -5.383090  -1.022935  12.305519 -16.135033 -25.749085   0.161418 -59.577938   0.069220   2.152030  -6.810660   4.523158 -32.999298 -12.722972 -20.768314  25.770771   0.001114   0.011359  -4.305430 -14.941615  -2.151217  -5.483888  -0.000178   0.014013 -23.624878  18.900034   8.829589  44.557155  -0.118491  -0.016777  13.599046  19.676326 -10.539591  -7.608876  -0.042140  -0.070501
 -2.622905   0.927037   3.288198  27.467572 -66.320127  39.767062   5.159050  -7.949969   5.739899   0.215126  -4.484484   3.119684  -8.747006  -9.666764  -5.300778   1.324587   2.274760  -4.701581  -7.407256  -3.937343  25.208308   0.138776  39.633924  -0.120426  -0.665280   2.703481  -6.685534   5.205237  -5.236949  -0.981312  12.203216 -15.461219 -25.132778   0.157249 -57.351030   0.068462   2.223460  -6.635949   4.802045 -32.872075 -12.062212 -21.387452  26.481296   0.001061   0.010978  -5.184087 -14.458601  -2.219106  -5.080628  -0.000389   0.013930 -24.348092  18.059547   9.402170  46.954976  -0.122728  -0.006703  12.863328  18.689390 -10.924207  -6.654976  -0.041537  -0.061767
 -2.625531   0.927057   3.284751  26.732763 -66.433268  39.903166   5.358357  -7.984745   5.451213   0.235083  -4.650385   2.852000  -8.774103  -9.645121  -5.494788   1.024496   1.789214  -5.115192  -8.186846  -4.732690  24.087405   0.134960  38.375843  -0.114459  -0.647014   2.472202  -7.038258   5.042988  -5.086830  -0.942619  12.106567 -14.824151 -24.560953   0.148944 -55.271007   0.065369   2.289920  -6.457616   5.071389 -32.748781 -11.416711 -22.017377  27.154279   0.001007   0.010485  -5.974356 -13.988661  -2.272632  -3.563684  -0.001084   0.021040 -25.049686  17.245587   9.995107  49.174428  -0.123904   0.003131  12.174857  17.773252 -11.294653  -5.784261  -0.040301  -0.053070
 -2.627648   0.926635   3.280606  25.662754 -66.283256  39.672706   5.616594  -8.100955   5.080554   0.231534  -4.977152   2.660411  -8.836956  -9.556589  -5.784398   0.641551   1.377979  -5.387690  -9.243917  -5.528156  22.695951   0.144140  36.702587  -0.118680  -0.597914   2.439949  -7.150280   4.743346  -4.981538  -0.968401  11.812095 -14.041991 -23.755337   0.165486 -52.206805   0.079277   2.400584  -7.039341   5.203588 -32.545154 -10.678147 -22.664683  27.857318   0.001797   0.012505  -6.998022 -13.283250  -2.399251  -3.192188  -0.000722   0.021292 -26.214325  16.200324  10.884920  51.721035  -0.129540   0.019936  11.448731  17.201721 -11.672237  -4.987080  -0.038875  -0.041251
